<svg width="1062" height="748" viewBox="0 0 1062 748" fill="none" xmlns="http://www.w3.org/2000/svg">
<g clip-path="url(#clip0_964_1645)">
<rect width="1062" height="748" fill="#3478F6"/>
<path d="M-88 564.465C-88 564.465 155.828 96.949 366 189.965C504.709 251.353 433.744 442.392 560 526.465C840.193 713.045 1151 -101.035 1151 -101.035" stroke="url(#paint0_linear_964_1645)" stroke-opacity="0.5" stroke-width="150"/>
<path d="M171.117 93.1641C176.618 91.6112 182.53 93.111 186.625 97.0988L221.007 130.576C225.103 134.563 226.76 140.433 225.354 145.974L213.553 192.488C212.147 198.028 207.892 202.398 202.391 203.951L156.208 216.988C150.707 218.541 144.795 217.041 140.7 213.054L106.318 179.577C102.222 175.589 100.565 169.719 101.971 164.179L113.772 117.665C115.178 112.124 119.433 107.754 124.934 106.201L171.117 93.1641Z" fill="white"/>
<path d="M162.911 154.631V188.515L133.871 171.919V138.035L162.911 154.631Z" fill="#3478F6"/>
<path opacity="0.25" d="M162.91 154.631L191.95 138.035V171.919L162.91 188.515V154.631Z" fill="#3478F6"/>
<path opacity="0.5" d="M162.911 121.438L191.951 138.034L162.911 154.63L133.871 138.034L162.911 121.438Z" fill="#3478F6"/>
<path d="M470.204 696.12C469.74 695.144 469.068 694.392 468.188 693.864C467.308 693.32 466.284 693.048 465.116 693.048C463.948 693.048 462.892 693.32 461.948 693.864C461.02 694.392 460.284 695.16 459.74 696.168C459.212 697.16 458.948 698.312 458.948 699.624C458.948 700.936 459.212 702.088 459.74 703.08C460.284 704.072 461.02 704.84 461.948 705.384C462.892 705.912 463.948 706.176 465.116 706.176C466.748 706.176 468.092 705.688 469.148 704.712C470.204 703.736 470.82 702.416 470.996 700.752H464.324V698.976H473.324V700.656C473.196 702.032 472.764 703.296 472.028 704.448C471.292 705.584 470.324 706.488 469.124 707.16C467.924 707.816 466.588 708.144 465.116 708.144C463.564 708.144 462.148 707.784 460.868 707.064C459.588 706.328 458.572 705.312 457.82 704.016C457.084 702.72 456.716 701.256 456.716 699.624C456.716 697.992 457.084 696.528 457.82 695.232C458.572 693.92 459.588 692.904 460.868 692.184C462.148 691.448 463.564 691.08 465.116 691.08C466.892 691.08 468.46 691.52 469.82 692.4C471.196 693.28 472.196 694.52 472.82 696.12H470.204ZM478.395 693.048V698.64H484.491V700.44H478.395V706.2H485.211V708H476.211V691.248H485.211V693.048H478.395ZM498.812 691.272V693.048H494.252V708H492.068V693.048H487.484V691.272H498.812ZM509.876 699.384C510.484 699.48 511.036 699.728 511.532 700.128C512.044 700.528 512.444 701.024 512.732 701.616C513.036 702.208 513.188 702.84 513.188 703.512C513.188 704.36 512.972 705.128 512.54 705.816C512.108 706.488 511.476 707.024 510.644 707.424C509.828 707.808 508.86 708 507.74 708H501.5V691.272H507.5C508.636 691.272 509.604 691.464 510.404 691.848C511.204 692.216 511.804 692.72 512.204 693.36C512.604 694 512.804 694.72 512.804 695.52C512.804 696.512 512.532 697.336 511.988 697.992C511.46 698.632 510.756 699.096 509.876 699.384ZM503.684 698.496H507.356C508.38 698.496 509.172 698.256 509.732 697.776C510.292 697.296 510.572 696.632 510.572 695.784C510.572 694.936 510.292 694.272 509.732 693.792C509.172 693.312 508.364 693.072 507.308 693.072H503.684V698.496ZM507.548 706.2C508.636 706.2 509.484 705.944 510.092 705.432C510.7 704.92 511.004 704.208 511.004 703.296C511.004 702.368 510.684 701.64 510.044 701.112C509.404 700.568 508.548 700.296 507.476 700.296H503.684V706.2H507.548ZM518.403 706.224H524.259V708H516.219V691.272H518.403V706.224ZM534.162 708.168C532.61 708.168 531.194 707.808 529.914 707.088C528.634 706.352 527.618 705.336 526.866 704.04C526.13 702.728 525.762 701.256 525.762 699.624C525.762 697.992 526.13 696.528 526.866 695.232C527.618 693.92 528.634 692.904 529.914 692.184C531.194 691.448 532.61 691.08 534.162 691.08C535.73 691.08 537.154 691.448 538.434 692.184C539.714 692.904 540.722 693.912 541.458 695.208C542.194 696.504 542.562 697.976 542.562 699.624C542.562 701.272 542.194 702.744 541.458 704.04C540.722 705.336 539.714 706.352 538.434 707.088C537.154 707.808 535.73 708.168 534.162 708.168ZM534.162 706.272C535.33 706.272 536.378 706 537.306 705.456C538.25 704.912 538.986 704.136 539.514 703.128C540.058 702.12 540.33 700.952 540.33 699.624C540.33 698.28 540.058 697.112 539.514 696.12C538.986 695.112 538.258 694.336 537.33 693.792C536.402 693.248 535.346 692.976 534.162 692.976C532.978 692.976 531.922 693.248 530.994 693.792C530.066 694.336 529.33 695.112 528.786 696.12C528.258 697.112 527.994 698.28 527.994 699.624C527.994 700.952 528.258 702.12 528.786 703.128C529.33 704.136 530.066 704.912 530.994 705.456C531.938 706 532.994 706.272 534.162 706.272ZM544.63 699.624C544.63 697.992 544.998 696.528 545.734 695.232C546.47 693.92 547.47 692.896 548.734 692.16C550.014 691.424 551.43 691.056 552.982 691.056C554.806 691.056 556.398 691.496 557.758 692.376C559.118 693.256 560.11 694.504 560.734 696.12H558.118C557.654 695.112 556.982 694.336 556.102 693.792C555.238 693.248 554.198 692.976 552.982 692.976C551.814 692.976 550.766 693.248 549.838 693.792C548.91 694.336 548.182 695.112 547.654 696.12C547.126 697.112 546.862 698.28 546.862 699.624C546.862 700.952 547.126 702.12 547.654 703.128C548.182 704.12 548.91 704.888 549.838 705.432C550.766 705.976 551.814 706.248 552.982 706.248C554.198 706.248 555.238 705.984 556.102 705.456C556.982 704.912 557.654 704.136 558.118 703.128H560.734C560.11 704.728 559.118 705.968 557.758 706.848C556.398 707.712 554.806 708.144 552.982 708.144C551.43 708.144 550.014 707.784 548.734 707.064C547.47 706.328 546.47 705.312 545.734 704.016C544.998 702.72 544.63 701.256 544.63 699.624ZM573.057 708L566.169 700.368V708H563.985V691.272H566.169V699.024L573.081 691.272H575.841L568.257 699.648L575.913 708H573.057ZM579.048 708.144C578.632 708.144 578.28 708 577.992 707.712C577.704 707.424 577.56 707.072 577.56 706.656C577.56 706.24 577.704 705.888 577.992 705.6C578.28 705.312 578.632 705.168 579.048 705.168C579.448 705.168 579.784 705.312 580.056 705.6C580.344 705.888 580.488 706.24 580.488 706.656C580.488 707.072 580.344 707.424 580.056 707.712C579.784 708 579.448 708.144 579.048 708.144ZM585.575 691.272V708H583.391V691.272H585.575ZM596.881 708.168C595.329 708.168 593.913 707.808 592.633 707.088C591.353 706.352 590.337 705.336 589.585 704.04C588.849 702.728 588.481 701.256 588.481 699.624C588.481 697.992 588.849 696.528 589.585 695.232C590.337 693.92 591.353 692.904 592.633 692.184C593.913 691.448 595.329 691.08 596.881 691.08C598.449 691.08 599.873 691.448 601.153 692.184C602.433 692.904 603.441 693.912 604.177 695.208C604.913 696.504 605.281 697.976 605.281 699.624C605.281 701.272 604.913 702.744 604.177 704.04C603.441 705.336 602.433 706.352 601.153 707.088C599.873 707.808 598.449 708.168 596.881 708.168ZM596.881 706.272C598.049 706.272 599.097 706 600.025 705.456C600.969 704.912 601.705 704.136 602.233 703.128C602.777 702.12 603.049 700.952 603.049 699.624C603.049 698.28 602.777 697.112 602.233 696.12C601.705 695.112 600.977 694.336 600.049 693.792C599.121 693.248 598.065 692.976 596.881 692.976C595.697 692.976 594.641 693.248 593.713 693.792C592.785 694.336 592.049 695.112 591.505 696.12C590.977 697.112 590.713 698.28 590.713 699.624C590.713 700.952 590.977 702.12 591.505 703.128C592.049 704.136 592.785 704.912 593.713 705.456C594.657 706 595.713 706.272 596.881 706.272Z" fill="white"/>
<path fill-rule="evenodd" clip-rule="evenodd" d="M522.019 311.371L836.455 492.54L522.019 673.709L207.583 492.54L522.019 311.371Z" stroke="white" stroke-width="0.540117" stroke-linecap="round" stroke-linejoin="round" stroke-dasharray="2.16 2.16 2.16 2.16"/>
<path fill-rule="evenodd" clip-rule="evenodd" d="M522.019 290.988L836.455 472.157L522.019 653.327L207.583 472.157L522.019 290.988Z" fill="white"/>
<path fill-rule="evenodd" clip-rule="evenodd" d="M559.695 282.566L560.261 283.547L522.019 305.621L559.769 327.411L598.219 305.217L598.786 306.198L560.902 328.065L598.076 349.522L635.612 327.856L636.179 328.836L599.209 350.176L638.093 372.62L676.404 350.507L676.971 351.487L639.226 373.274L677.54 395.39L716.064 373.153L716.63 374.134L678.673 396.043L717.961 418.721L755.722 396.925L756.289 397.906L719.094 419.375L757.411 441.492L795.38 419.576L795.947 420.556L758.544 442.146L795.947 463.736L795.38 464.716L757.411 442.8L719.66 464.59L757.421 486.386L756.854 487.367L718.527 465.244L681.353 486.701L720.029 509.025L719.462 510.006L680.22 487.355L641.337 509.799L679.238 531.676L678.671 532.656L640.204 510.453L601.89 532.568L639.579 554.323L639.012 555.303L600.758 533.222L561.469 555.9L599.92 578.094L599.353 579.075L560.336 556.554L522.019 578.671L560.261 600.745L559.695 601.725L520.886 579.325L482.078 601.725L481.511 600.745L519.753 578.671L481.436 556.554L442.419 579.075L441.853 578.094L480.304 555.9L441.015 533.222L402.761 555.303L402.194 554.323L439.883 532.568L401.568 510.453L363.102 532.656L362.535 531.676L400.436 509.799L361.551 487.355L322.309 510.006L321.743 509.025L360.419 486.701L323.244 465.243L284.917 487.367L284.35 486.386L322.112 464.59L284.361 442.8L246.392 464.716L245.825 463.736L283.229 442.146L245.825 420.556L246.392 419.576L284.361 441.492L322.679 419.375L285.484 397.906L286.05 396.925L323.811 418.721L363.1 396.043L325.143 374.134L325.71 373.153L364.233 395.389L402.547 373.274L364.801 351.487L365.368 350.507L403.679 372.62L442.563 350.176L405.592 328.836L406.159 327.856L443.696 349.522L480.869 328.065L442.984 306.198L443.551 305.217L482.002 327.411L519.753 305.621L481.511 283.547L482.078 282.566L520.886 304.967L559.695 282.566ZM520.886 306.275L483.135 328.065L520.885 349.855L558.637 328.065L520.886 306.275ZM482.002 328.719L444.828 350.176L482.579 371.966L519.753 350.509L482.002 328.719ZM443.696 350.83L404.812 373.274L442.562 395.064L481.446 372.62L443.696 350.83ZM403.679 373.928L365.365 396.043L403.116 417.833L441.43 395.718L403.679 373.928ZM364.233 396.697L324.944 419.375L362.694 441.165L401.983 418.487L364.233 396.697ZM323.811 420.029L285.494 442.146L323.244 463.936L361.562 441.819L323.811 420.029ZM522.018 350.509L559.769 328.718L596.944 350.176L559.192 371.966L522.018 350.509ZM483.711 372.62L520.885 351.163L558.06 372.62L520.886 394.077L483.711 372.62ZM443.695 395.718L482.579 373.274L519.753 394.731L480.869 417.175L443.695 395.718ZM404.249 418.487L442.562 396.372L479.737 417.829L441.423 439.944L404.249 418.487ZM363.827 441.819L403.116 419.141L440.29 440.598L401.001 463.276L363.827 441.819ZM324.377 464.59L362.694 442.472L399.869 463.93L361.551 486.047L324.377 464.59ZM598.076 350.83L560.325 372.62L599.209 395.065L636.96 373.274L598.076 350.83ZM559.192 373.274L522.018 394.731L560.902 417.176L598.076 395.718L559.192 373.274ZM520.886 395.385L482.002 417.829L520.886 440.274L559.77 417.829L520.886 395.385ZM480.869 418.483L442.556 440.598L481.44 463.043L519.754 440.927L480.869 418.483ZM441.423 441.252L402.134 463.93L441.018 486.374L480.307 463.696L441.423 441.252ZM401.001 464.584L362.684 486.701L401.568 509.145L439.886 487.028L401.001 464.584ZM600.342 395.718L638.093 373.928L676.407 396.043L638.656 417.834L600.342 395.718ZM562.035 417.829L599.209 396.372L637.523 418.488L600.35 439.945L562.035 417.829ZM522.019 440.927L560.902 418.483L599.217 440.599L560.333 463.043L522.019 440.927ZM482.572 463.696L520.886 441.581L559.201 463.697L520.887 485.812L482.572 463.696ZM442.151 487.028L481.44 464.35L519.754 486.466L480.465 509.144L442.151 487.028ZM402.701 509.799L441.018 487.682L479.333 509.797L441.015 531.915L402.701 509.799ZM677.54 396.697L639.789 418.488L679.077 441.165L716.828 419.375L677.54 396.697ZM638.656 419.142L601.482 440.599L640.77 463.276L677.944 441.819L638.656 419.142ZM600.35 441.253L561.466 463.697L600.754 486.374L639.638 463.93L600.35 441.253ZM560.333 464.35L522.019 486.466L561.308 509.143L599.621 487.028L560.333 464.35ZM520.887 487.119L481.598 509.797L520.886 532.475L560.175 509.797L520.887 487.119ZM480.465 510.451L442.148 532.568L481.436 555.246L519.754 533.129L480.465 510.451ZM680.21 441.819L717.961 420.029L756.278 442.146L718.527 463.936L680.21 441.819ZM641.903 463.93L679.077 442.473L717.394 464.59L680.22 486.047L641.903 463.93ZM601.887 487.028L640.77 464.584L679.088 486.701L640.204 509.145L601.887 487.028ZM562.44 509.797L600.754 487.682L639.071 509.799L600.758 531.914L562.44 509.797ZM522.019 533.129L561.308 510.451L599.625 532.568L560.336 555.246L522.019 533.129ZM482.569 555.9L520.886 533.783L559.203 555.9L520.886 578.017L482.569 555.9Z" fill="#96CFFF"/>
<mask id="mask0_964_1645" style="mask-type:alpha" maskUnits="userSpaceOnUse" x="245" y="282" width="551" height="320">
<path fill-rule="evenodd" clip-rule="evenodd" d="M559.695 282.566L560.261 283.547L522.019 305.621L559.769 327.411L598.219 305.217L598.786 306.198L560.902 328.065L598.076 349.522L635.612 327.856L636.179 328.836L599.209 350.176L638.093 372.62L676.404 350.507L676.971 351.487L639.226 373.274L677.54 395.39L716.064 373.153L716.63 374.134L678.673 396.043L717.961 418.721L755.722 396.925L756.289 397.906L719.094 419.375L757.411 441.492L795.38 419.576L795.947 420.556L758.544 442.146L795.947 463.736L795.38 464.716L757.411 442.8L719.66 464.59L757.421 486.386L756.854 487.367L718.527 465.244L681.353 486.701L720.029 509.025L719.462 510.006L680.22 487.355L641.337 509.799L679.238 531.676L678.671 532.656L640.204 510.453L601.89 532.568L639.579 554.323L639.012 555.303L600.758 533.222L561.469 555.9L599.92 578.094L599.353 579.075L560.336 556.554L522.019 578.671L560.261 600.745L559.695 601.725L520.886 579.325L482.078 601.725L481.511 600.745L519.753 578.671L481.436 556.554L442.419 579.075L441.853 578.094L480.304 555.9L441.015 533.222L402.761 555.303L402.194 554.323L439.883 532.568L401.568 510.453L363.102 532.656L362.535 531.676L400.436 509.799L361.551 487.355L322.309 510.006L321.743 509.025L360.419 486.701L323.244 465.243L284.917 487.367L284.35 486.386L322.112 464.59L284.361 442.8L246.392 464.716L245.825 463.736L283.229 442.146L245.825 420.556L246.392 419.576L284.361 441.492L322.679 419.375L285.484 397.906L286.05 396.925L323.811 418.721L363.1 396.043L325.143 374.134L325.71 373.153L364.233 395.389L402.547 373.274L364.801 351.487L365.368 350.507L403.679 372.62L442.563 350.176L405.592 328.836L406.159 327.856L443.696 349.522L480.869 328.065L442.984 306.198L443.551 305.217L482.002 327.411L519.753 305.621L481.511 283.547L482.078 282.566L520.886 304.967L559.695 282.566ZM520.886 306.275L483.135 328.065L520.885 349.855L558.637 328.065L520.886 306.275ZM482.002 328.719L444.828 350.176L482.579 371.966L519.753 350.509L482.002 328.719ZM443.696 350.83L404.812 373.274L442.562 395.064L481.446 372.62L443.696 350.83ZM403.679 373.928L365.365 396.043L403.116 417.833L441.43 395.718L403.679 373.928ZM364.233 396.697L324.944 419.375L362.694 441.165L401.983 418.487L364.233 396.697ZM323.811 420.029L285.494 442.146L323.244 463.936L361.562 441.819L323.811 420.029ZM522.018 350.509L559.769 328.718L596.944 350.176L559.192 371.966L522.018 350.509ZM483.711 372.62L520.885 351.163L558.06 372.62L520.886 394.077L483.711 372.62ZM443.695 395.718L482.579 373.274L519.753 394.731L480.869 417.175L443.695 395.718ZM404.249 418.487L442.562 396.372L479.737 417.829L441.423 439.944L404.249 418.487ZM363.827 441.819L403.116 419.141L440.29 440.598L401.001 463.276L363.827 441.819ZM324.377 464.59L362.694 442.472L399.869 463.93L361.551 486.047L324.377 464.59ZM598.076 350.83L560.325 372.62L599.209 395.065L636.96 373.274L598.076 350.83ZM559.192 373.274L522.018 394.731L560.902 417.176L598.076 395.718L559.192 373.274ZM520.886 395.385L482.002 417.829L520.886 440.274L559.77 417.829L520.886 395.385ZM480.869 418.483L442.556 440.598L481.44 463.043L519.754 440.927L480.869 418.483ZM441.423 441.252L402.134 463.93L441.018 486.374L480.307 463.696L441.423 441.252ZM401.001 464.584L362.684 486.701L401.568 509.145L439.886 487.028L401.001 464.584ZM600.342 395.718L638.093 373.928L676.407 396.043L638.656 417.834L600.342 395.718ZM562.035 417.829L599.209 396.372L637.523 418.488L600.35 439.945L562.035 417.829ZM522.019 440.927L560.902 418.483L599.217 440.599L560.333 463.043L522.019 440.927ZM482.572 463.696L520.886 441.581L559.201 463.697L520.887 485.812L482.572 463.696ZM442.151 487.028L481.44 464.35L519.754 486.466L480.465 509.144L442.151 487.028ZM402.701 509.799L441.018 487.682L479.333 509.797L441.015 531.915L402.701 509.799ZM677.54 396.697L639.789 418.488L679.077 441.165L716.828 419.375L677.54 396.697ZM638.656 419.142L601.482 440.599L640.77 463.276L677.944 441.819L638.656 419.142ZM600.35 441.253L561.466 463.697L600.754 486.374L639.638 463.93L600.35 441.253ZM560.333 464.35L522.019 486.466L561.308 509.143L599.621 487.028L560.333 464.35ZM520.887 487.119L481.598 509.797L520.886 532.475L560.175 509.797L520.887 487.119ZM480.465 510.451L442.148 532.568L481.436 555.246L519.754 533.129L480.465 510.451ZM680.21 441.819L717.961 420.029L756.278 442.146L718.527 463.936L680.21 441.819ZM641.903 463.93L679.077 442.473L717.394 464.59L680.22 486.047L641.903 463.93ZM601.887 487.028L640.77 464.584L679.088 486.701L640.204 509.145L601.887 487.028ZM562.44 509.797L600.754 487.682L639.071 509.799L600.758 531.914L562.44 509.797ZM522.019 533.129L561.308 510.451L599.625 532.568L560.336 555.246L522.019 533.129ZM482.569 555.9L520.886 533.783L559.203 555.9L520.886 578.017L482.569 555.9Z" fill="white"/>
</mask>
<g mask="url(#mask0_964_1645)">
<path fill-rule="evenodd" clip-rule="evenodd" d="M521.452 474.417C608.438 474.417 678.954 413.076 678.954 337.408C678.954 261.74 608.438 200.398 521.452 200.398C434.467 200.398 363.951 261.74 363.951 337.408C363.951 413.076 434.467 474.417 521.452 474.417Z" fill="url(#paint1_radial_964_1645)"/>
</g>
<path d="M208.118 441.583L521.453 260.376L834.788 441.583L521.453 622.79L208.118 441.583Z" stroke="#3364ED" stroke-width="0.540117" stroke-linecap="round"/>
<path fill-rule="evenodd" clip-rule="evenodd" d="M521.452 622.755L835.322 441.586V454.041L521.452 635.21V622.755Z" fill="url(#paint2_linear_964_1645)"/>
<path fill-rule="evenodd" clip-rule="evenodd" d="M207.583 440.457L521.452 621.626V634.082L207.583 452.912V440.457Z" fill="url(#paint3_linear_964_1645)"/>
<path d="M718.656 419.27L756.084 441.288" stroke="#3364ED" stroke-width="0.540117"/>
<path d="M755.735 257.703V441.902" stroke="white" stroke-width="0.540117" stroke-dasharray="2.16 2.16 2.16 2.16"/>
<path fill-rule="evenodd" clip-rule="evenodd" d="M754.872 253.617L793.398 275.131V311.365L754.872 289.851V253.617Z" fill="url(#paint4_linear_964_1645)"/>
<path fill-rule="evenodd" clip-rule="evenodd" d="M773.569 272.199C775.781 273.496 777.575 277.086 777.575 280.218C777.575 283.348 775.781 284.836 773.569 283.539C771.356 282.242 769.562 278.651 769.562 275.52C769.562 272.389 771.356 270.902 773.569 272.199ZM770.891 282.286C772.526 284.709 774.611 285.931 776.247 285.425C779.801 289.409 779.801 293.024 779.801 296.639L767.337 289.332C767.337 285.717 767.337 282.102 770.891 282.286Z" fill="#3767EF"/>
<path d="M324.128 418.922L283.52 442.097" stroke="#3364ED" stroke-width="0.540117"/>
<path d="M284.366 337.242V441.91" stroke="white" stroke-width="0.540117" stroke-dasharray="2.16 2.16 2.16 2.16"/>
<path fill-rule="evenodd" clip-rule="evenodd" d="M285.768 334.016L247.242 355.529V391.763L285.768 370.249V334.016Z" fill="url(#paint5_linear_964_1645)"/>
<path fill-rule="evenodd" clip-rule="evenodd" d="M269.541 355.437L267.288 356.687V354.201C267.841 353.587 268.217 352.777 268.217 352.085C268.217 351.081 267.427 350.707 266.453 351.248C265.478 351.789 264.689 353.04 264.689 354.044C264.689 354.696 265.022 355.082 265.524 355.124V357.667L263.365 358.865V360.682L257.95 363.688V367.513L256.308 368.426V374.585L257.95 373.673V378.219L274.476 369.044V364.499L276.157 363.566V357.406L274.476 358.339V354.513L269.541 357.253V355.437ZM262.484 372.525V371.163L269.982 367V368.362L262.484 372.525ZM262.501 368.363C263.53 367.792 264.364 366.472 264.364 365.415C264.364 364.358 263.53 363.965 262.501 364.536C261.471 365.108 260.637 366.428 260.637 367.485C260.637 368.541 261.471 368.935 262.501 368.363ZM272.054 361.148C272.054 362.204 271.22 363.525 270.19 364.096C269.161 364.667 268.326 364.274 268.326 363.217C268.326 362.161 269.161 360.84 270.19 360.269C271.22 359.698 272.054 360.091 272.054 361.148Z" fill="#3767EF"/>
<path d="M584.769 477.645L639.487 509.274V485.87" stroke="#3364ED" stroke-width="0.540117"/>
<path fill-rule="evenodd" clip-rule="evenodd" d="M639.295 485.734C641.798 485.734 643.828 483.706 643.828 481.205C643.828 478.704 641.798 476.676 639.295 476.676C636.792 476.676 634.763 478.704 634.763 481.205C634.763 483.706 636.792 485.734 639.295 485.734Z" fill="white" stroke="#3364ED" stroke-width="0.540117"/>
<path d="M444.229 577.192L481.133 555.889L521.095 578.325L560.545 555.889V528.609" stroke="#3364ED" stroke-width="0.540117"/>
<path fill-rule="evenodd" clip-rule="evenodd" d="M560.545 532.167C563.361 532.167 565.644 529.886 565.644 527.072C565.644 524.258 563.361 521.977 560.545 521.977C557.729 521.977 555.446 524.258 555.446 527.072C555.446 529.886 557.729 532.167 560.545 532.167Z" fill="white" stroke="#3364ED" stroke-width="0.540117"/>
<path d="M539.479 474.383L441.769 532.679L401.743 509.06V488.488" stroke="#3364ED" stroke-width="0.540117"/>
<path fill-rule="evenodd" clip-rule="evenodd" d="M443.267 187.949L521.451 233.242V395.161L443.267 349.869V187.949Z" fill="white"/>
<path fill-rule="evenodd" clip-rule="evenodd" d="M521.451 142.66L599.635 187.952L521.451 233.245L443.267 187.952L521.451 142.66Z" fill="#EFEFEF"/>
<path fill-rule="evenodd" clip-rule="evenodd" d="M599.635 187.949L521.451 233.242V395.161L599.635 349.869V187.949Z" fill="#DBDBDB"/>
<path fill-rule="evenodd" clip-rule="evenodd" d="M590.574 212.863L533.919 245.7V268.346L590.574 235.509V212.863ZM590.574 244.568L533.919 277.405V300.051L590.574 267.214V244.568ZM533.919 309.11L590.574 276.273V298.919L533.919 331.756V309.11Z" fill="#3869F0" fill-opacity="0.1"/>
<path fill-rule="evenodd" clip-rule="evenodd" d="M454.03 212.863L510.686 245.7V268.346L454.03 235.509V212.863ZM454.03 244.568L510.686 277.405V300.051L454.03 267.214V244.568ZM510.686 309.11L454.03 276.273V298.919L510.686 331.756V309.11Z" fill="#3869F0" fill-opacity="0.1"/>
<path fill-rule="evenodd" clip-rule="evenodd" d="M451.199 306.273L507.854 339.11V361.757L451.199 328.92V306.273Z" fill="#3667EF" fill-opacity="0.1"/>
<path fill-rule="evenodd" clip-rule="evenodd" d="M521.452 156.18L576.292 187.949L521.452 219.718L466.612 187.949L521.452 156.18Z" fill="#5ACBFF"/>
<path opacity="0.3" fill-rule="evenodd" clip-rule="evenodd" d="M479.526 327.222L401.342 281.93V373.647L479.526 418.939V327.222Z" fill="#3364ED"/>
<path opacity="0.701597" fill-rule="evenodd" clip-rule="evenodd" d="M401.342 464.233L323.158 418.94L402.475 372.516L480.659 417.808L401.342 464.233Z" fill="#3364ED"/>
<path opacity="0.5" fill-rule="evenodd" clip-rule="evenodd" d="M323.16 327.222L401.344 281.93V373.647L323.16 418.939V327.222Z" fill="#3364ED"/>
<path fill-rule="evenodd" clip-rule="evenodd" d="M349.873 342.324L401.344 372.142V432.522L349.873 402.704V342.324Z" fill="white"/>
<path fill-rule="evenodd" clip-rule="evenodd" d="M401.344 312.504L452.815 342.321L401.344 372.139L349.873 342.321L401.344 312.504Z" fill="#EFEFEF"/>
<path fill-rule="evenodd" clip-rule="evenodd" d="M452.814 342.324L401.343 372.142V432.522L452.814 402.704V342.324Z" fill="#DDDDDD"/>
<path fill-rule="evenodd" clip-rule="evenodd" d="M323.159 327.219L401.343 372.511V464.228L323.159 418.936V327.219Z" stroke="url(#paint6_linear_964_1645)" stroke-width="1.08023" stroke-linejoin="round"/>
<path fill-rule="evenodd" clip-rule="evenodd" d="M479.526 327.219L401.342 372.511V464.228L479.526 418.936V327.219Z" stroke="url(#paint7_linear_964_1645)" stroke-width="1.08023" stroke-linejoin="round"/>
<path fill-rule="evenodd" clip-rule="evenodd" d="M401.343 281.93L479.527 327.222L401.343 372.514L323.159 327.222L401.343 281.93Z" stroke="url(#paint8_linear_964_1645)" stroke-width="1.08023" stroke-linejoin="round"/>
<path fill-rule="evenodd" clip-rule="evenodd" d="M598.503 266.086L678.953 312.511V441.594L598.503 395.169V266.086Z" fill="url(#paint9_linear_964_1645)" stroke="url(#paint10_linear_964_1645)" stroke-width="1.08023" stroke-linejoin="round"/>
<path fill-rule="evenodd" clip-rule="evenodd" d="M608.702 295.52L614.368 298.916V306.843L608.702 303.446V295.52Z" fill="url(#paint11_linear_964_1645)"/>
<path fill-rule="evenodd" clip-rule="evenodd" d="M622.299 324.957L627.964 328.354V336.28L622.299 332.883V324.957Z" fill="url(#paint12_linear_964_1645)"/>
<path fill-rule="evenodd" clip-rule="evenodd" d="M641.562 348.734L647.228 352.131V360.057L641.562 356.661V348.734Z" fill="url(#paint13_linear_964_1645)"/>
<path fill-rule="evenodd" clip-rule="evenodd" d="M650.627 378.18L656.292 381.577V389.503L650.627 386.106V378.18Z" fill="url(#paint14_linear_964_1645)"/>
<path fill-rule="evenodd" clip-rule="evenodd" d="M609.836 352.133L615.501 355.53V363.456L609.836 360.059V352.133Z" fill="url(#paint15_linear_964_1645)"/>
<path fill-rule="evenodd" clip-rule="evenodd" d="M635.896 300.047L641.561 303.444V311.37L635.896 307.973V300.047Z" fill="url(#paint16_linear_964_1645)"/>
<path fill-rule="evenodd" clip-rule="evenodd" d="M658.557 324.957L664.222 328.354V336.28L658.557 332.883V324.957Z" fill="url(#paint17_linear_964_1645)"/>
<path fill-rule="evenodd" clip-rule="evenodd" d="M637.028 243.434L718.612 289.858L678.953 312.504L598.503 266.08L637.028 243.434Z" fill="url(#paint18_linear_964_1645)" stroke="#5AC8FF" stroke-width="1.08023" stroke-linejoin="round"/>
<path fill-rule="evenodd" clip-rule="evenodd" d="M718.61 290.992L678.952 313.638V441.589L718.61 418.943V290.992Z" fill="url(#paint19_linear_964_1645)" stroke="url(#paint20_linear_964_1645)" stroke-width="1.08023" stroke-linejoin="round"/>
<path fill-rule="evenodd" clip-rule="evenodd" d="M689.151 321.118L710.68 309.105V311.813L689.151 323.825V321.118Z" fill="white"/>
<path fill-rule="evenodd" clip-rule="evenodd" d="M689.151 332.442L710.68 320.43V323.137L689.151 335.15V332.442Z" fill="white"/>
<path fill-rule="evenodd" clip-rule="evenodd" d="M689.151 343.766L710.68 331.754V334.462L689.151 346.474V343.766Z" fill="white"/>
<path fill-rule="evenodd" clip-rule="evenodd" d="M689.151 355.09L710.68 343.078V345.786L689.151 357.798V355.09Z" fill="white"/>
<path fill-rule="evenodd" clip-rule="evenodd" d="M689.151 366.415L710.68 354.402V357.11L689.151 369.122V366.415Z" fill="white"/>
<path fill-rule="evenodd" clip-rule="evenodd" d="M502.191 334.02L556.58 365.724V494.807L502.191 463.103V334.02Z" fill="url(#paint21_linear_964_1645)"/>
<path fill-rule="evenodd" clip-rule="evenodd" d="M610.969 334.02L556.58 365.724V494.807L610.969 463.103V334.02Z" fill="url(#paint22_linear_964_1645)"/>
<path fill-rule="evenodd" clip-rule="evenodd" d="M556.58 302.309L610.969 334.013L556.58 365.718L502.191 334.013L556.58 302.309Z" fill="#619BFF"/>
<path fill-rule="evenodd" clip-rule="evenodd" d="M556.58 312.355L593.971 334.016L556.58 355.676L519.189 334.016L556.58 312.355Z" fill="#5ACBFF"/>
<path fill-rule="evenodd" clip-rule="evenodd" d="M556.581 261.52L519.312 270.106V334.085L556.58 355.675L556.581 355.675V355.674L593.85 334.084V268.787L556.581 262.842V261.52Z" fill="url(#paint23_linear_964_1645)"/>
<path fill-rule="evenodd" clip-rule="evenodd" d="M521.583 81.3125H446.14L466.663 187.901L521.453 219.642V219.738L521.537 219.69L521.583 219.717V219.664L576.373 187.923L598.951 82.5277L521.583 82.5271V81.3125Z" fill="url(#paint24_linear_964_1645)"/>
<path fill-rule="evenodd" clip-rule="evenodd" d="M733.965 549.186C733.519 548.412 732.531 548.146 731.756 548.59L679.23 578.705C678.452 579.151 678.184 580.144 678.633 580.921L680.409 583.998C680.856 584.772 681.844 585.038 682.618 584.594L735.144 554.479C735.922 554.033 736.19 553.039 735.742 552.263L733.965 549.186Z" fill="url(#paint25_linear_964_1645)"/>
<path fill-rule="evenodd" clip-rule="evenodd" d="M342.954 568.045C343.4 567.272 344.388 567.005 345.163 567.45L397.689 597.565C398.467 598.011 398.735 599.004 398.286 599.78L396.51 602.858C396.063 603.631 395.075 603.897 394.301 603.453L341.775 573.338C340.997 572.892 340.729 571.899 341.177 571.122L342.954 568.045Z" fill="url(#paint26_linear_964_1645)"/>
<path d="M402.344 604.304V614.871L393.288 609.695V599.129L402.344 604.304Z" fill="white"/>
<path d="M402.344 604.304L411.4 599.129V609.695L402.344 614.871V604.304Z" fill="#DEDEDE"/>
<path d="M402.344 593.953L411.4 599.129L402.344 604.304L393.288 599.129L402.344 593.953Z" fill="#F1F1F1"/>
<path d="M737.646 549.449V560.015L728.59 554.84V544.273L737.646 549.449Z" fill="white"/>
<path d="M737.646 549.449L746.701 544.273V554.84L737.646 560.015V549.449Z" fill="#DEDEDE"/>
<path d="M737.646 539.098L746.702 544.273L737.646 549.449L728.59 544.273L737.646 539.098Z" fill="#F1F1F1"/>
<path d="M395.972 437.038L382.058 490.526L375.867 495.679L366.32 481.439L357.804 436.035L348.984 471.431L342.795 476.58L333.246 462.344L313.529 398.167L319.712 393.009L333.626 401.042L341.305 450.259L344.616 416.127L350.809 410.963L365.103 419.216L374.227 469.266L375.794 434.115L381.982 428.961L395.972 437.038Z" fill="#C1394B"/>
<path d="M416.254 460.754V473.199L433.666 483.251V494.819L427.439 499.956L416.254 484.767V498.263L435.947 509.632V521.639L429.736 526.803L403.253 502.763L397.065 446.388L403.253 441.242L435.947 460.117V472.124L429.747 477.266L416.254 460.754Z" fill="#C1394B"/>
<path d="M477.461 514.058C480.553 516.602 483.037 519.818 484.912 523.706C486.788 527.534 487.726 531.231 487.726 534.795C487.726 539.936 486.154 543.118 483.012 544.342C479.92 545.537 475.586 544.524 470.01 541.305L445.148 526.951L438.939 470.607L445.148 465.43L469.174 479.301C474.597 482.432 478.83 486.307 481.871 490.926C484.963 495.574 486.509 500.352 486.509 505.26C486.509 508.882 485.673 511.408 484 512.838C482.378 514.297 480.198 514.703 477.461 514.058ZM458.149 497.825L466.665 502.741C468.794 503.971 470.416 504.381 471.531 503.973C472.697 503.536 473.279 502.266 473.279 500.163C473.279 498.06 472.697 496.116 471.531 494.333C470.416 492.579 468.794 491.088 466.665 489.859L458.149 484.942V497.825ZM467.729 527.894C469.909 529.153 471.581 529.563 472.747 529.126C473.964 528.66 474.572 527.346 474.572 525.185C474.572 523.023 472.233 520.835 470.966 518.876C469.75 516.947 469.757 515.481 467.577 514.223L458.149 508.78V522.363L467.729 527.894Z" fill="#C1394B"/>
<path d="M495.19 509.921C495.393 503.787 497.167 499.991 500.513 498.534C503.858 497.077 508.395 498.002 514.122 501.309C517.924 503.503 521.168 506.136 523.854 509.206C526.592 512.305 528.644 515.565 530.013 518.984C531.432 522.432 532.142 525.792 532.142 529.064C532.142 532.92 531.306 535.592 529.633 537.08C527.96 538.51 526.009 539.019 523.778 538.608V538.959C526.668 541.737 528.949 544.894 530.621 548.431C532.294 551.967 533.13 555.751 533.13 559.782C533.13 563.404 532.395 566.193 530.925 568.149C529.506 570.076 527.403 571.023 524.615 570.991C521.878 570.988 518.608 569.889 514.807 567.694C508.724 564.183 503.858 559.65 500.208 554.096C496.641 548.619 488.306 540.417 488.306 540.417C488.304 540.355 494.508 535.266 494.506 535.204L507.127 542.491C507.178 545.091 507.812 547.501 509.028 549.723C510.245 551.886 512.019 553.64 514.35 554.986C516.327 556.128 517.848 556.363 518.912 555.692C520.027 554.992 520.585 553.562 520.585 551.4C520.585 548.595 518.534 546.19 516.963 544.056C515.443 541.892 514.249 539.767 510.853 537.806L508.42 536.401L502.211 529.389L508.42 524.22L510.853 525.624C513.438 527.117 515.516 527.82 517.088 527.734C518.71 527.619 519.521 526.247 519.521 523.618C519.521 521.514 519.014 519.586 518 517.832C516.986 516.078 515.592 514.689 513.818 513.665C511.892 512.553 510.447 512.391 509.484 513.179C508.572 513.996 508.04 515.353 507.888 517.252L495.19 509.921Z" fill="#C1394B"/>
<path d="M498.103 504.71H492.674L499.204 499.293L498.103 504.71Z" fill="#C1394B"/>
<path d="M525.041 537.374L529.899 536.889L524.425 541.154L525.041 537.374Z" fill="#C1394B"/>
<path d="M484.701 543.38L477.578 549.156L479.531 542.848L484.701 543.38Z" fill="#C1394B"/>
<path d="M529.896 569.274L522.772 575.05L524.726 568.742L529.896 569.274Z" fill="#C1394B"/>
<path d="M389.786 442.191L375.872 495.679L360.133 486.593L351.617 441.188L342.798 476.584L327.059 467.497L313.525 398.162L327.439 406.196L335.118 455.412L344.622 416.116L358.917 424.369L368.04 474.419L375.796 434.114L389.786 442.191Z" fill="#EB445A"/>
<path d="M410.068 465.907V478.352L427.479 488.404V499.972L410.068 489.92V503.416L429.76 514.785V526.792L397.066 507.916V446.395L429.76 465.27V477.277L410.068 465.907Z" fill="#EB445A"/>
<path d="M471.275 519.211C474.367 521.756 476.85 524.971 478.726 528.859C480.601 532.687 481.539 536.384 481.539 539.948C481.539 545.089 479.968 548.272 476.825 549.495C473.733 550.69 469.399 549.677 463.823 546.458L438.961 532.104V470.583L462.987 484.454C468.411 487.586 472.643 491.461 475.684 496.079C478.776 500.727 480.322 505.505 480.322 510.413C480.322 514.035 479.486 516.561 477.813 517.991C476.191 519.45 474.012 519.856 471.275 519.211ZM451.962 502.978L460.478 507.895C462.607 509.124 464.229 509.534 465.344 509.126C466.51 508.689 467.093 507.419 467.093 505.316C467.093 503.213 466.51 501.27 465.344 499.486C464.229 497.732 462.607 496.241 460.478 495.012L451.962 490.095V502.978ZM461.543 533.047C463.722 534.306 465.395 534.717 466.561 534.28C467.777 533.813 468.385 532.5 468.385 530.338C468.385 528.176 467.752 526.116 466.485 524.157C465.268 522.228 463.57 520.634 461.39 519.376L451.962 513.933V527.516L461.543 533.047Z" fill="#EB445A"/>
<path d="M489.004 515.074C489.206 508.94 490.981 505.144 494.326 503.687C497.671 502.23 502.208 503.155 507.936 506.462C511.737 508.656 514.981 511.289 517.668 514.359C520.405 517.458 522.458 520.718 523.826 524.137C525.246 527.585 525.955 530.946 525.955 534.217C525.955 538.073 525.119 540.745 523.446 542.234C521.774 543.663 519.822 544.172 517.592 543.761V544.112C520.481 546.89 522.762 550.047 524.435 553.584C526.107 557.12 526.944 560.904 526.944 564.935C526.944 568.558 526.209 571.347 524.739 573.302C523.32 575.229 521.216 576.176 518.428 576.144C515.691 576.141 512.422 575.042 508.62 572.847C502.537 569.336 497.671 564.803 494.022 559.249C490.423 553.724 488.522 547.426 488.319 540.357L500.941 547.644C500.991 550.244 501.625 552.654 502.842 554.876C504.058 557.039 505.832 558.793 508.164 560.14C510.141 561.281 511.661 561.516 512.726 560.845C513.841 560.145 514.398 558.715 514.398 556.553C514.398 553.748 513.613 551.279 512.041 549.145C510.521 546.982 508.062 544.92 504.666 542.959L502.233 541.554V529.373L504.666 530.778C507.251 532.27 509.33 532.973 510.901 532.887C512.523 532.772 513.334 531.4 513.334 528.771C513.334 526.668 512.827 524.739 511.813 522.985C510.8 521.231 509.406 519.842 507.632 518.818C505.705 517.706 504.261 517.544 503.298 518.332C502.385 519.149 501.853 520.506 501.701 522.405L489.004 515.074Z" fill="#EB445A"/>
<path d="M435.931 460.125L429.762 465.277L429.752 477.263L435.931 472.114V460.125Z" fill="#A63040"/>
<path d="M433.646 482.984L427.477 488.136L427.467 500.123L433.646 494.974V482.984Z" fill="#A63040"/>
<path d="M435.977 509.758L429.808 514.909L429.798 526.896L435.977 521.747V509.758Z" fill="#A63040"/>
<path d="M365.107 419.199L358.903 424.363L368.066 474.353L371.694 455.379L365.107 419.199Z" fill="#A63040"/>
<path d="M416.213 473.215L410.061 478.39V465.91L416.213 469.486V473.215Z" fill="#A63040"/>
<path d="M416.257 498.255L410.061 503.464V489.918L416.257 493.5V498.255Z" fill="#A63040"/>
<path d="M333.619 401.047L327.436 406.198L335.129 455.398L339.367 437.848L333.619 401.047Z" fill="#A63040"/>
<path d="M349.021 471.407L342.772 476.566L351.631 441.223L353.73 452.402L349.021 471.407Z" fill="#A63040"/>
<path d="M395.977 437.027L389.81 442.263L375.885 495.668L382.063 490.518L395.977 437.027Z" fill="#A63040"/>
<path d="M458.161 497.803L451.965 502.986V490.098L458.161 493.674V497.803Z" fill="#A63040"/>
<path d="M458.162 522.331L451.935 527.542V513.934L458.162 517.506V522.331Z" fill="#A63040"/>
<path d="M500.938 547.62L488.306 540.334L494.51 535.195L502.233 539.66V541.56L506.957 544.368L500.938 547.62Z" fill="#A63040"/>
<ellipse rx="13.9729" ry="13.9729" transform="matrix(-0.992021 -0.0914234 0.0827402 0.991462 510.321 183.35)" fill="#FFC380"/>
<ellipse rx="13.9729" ry="13.9729" transform="matrix(-0.992021 -0.0914234 0.0827402 0.991462 513.219 181.154)" fill="#F19A37"/>
<path d="M519.942 179.016C519.928 177.012 518.212 175.934 515.985 175.215L516.241 172.5L514.502 172.088L514.252 174.732C513.795 174.624 513.327 174.521 512.862 174.421L513.112 171.759L511.375 171.348L511.12 174.062L507.614 173.236L507.448 175.002C507.448 175.002 508.735 175.283 508.711 175.3C509.415 175.467 509.608 175.91 509.643 176.261L508.943 183.7C508.893 183.903 508.731 184.208 508.239 184.091C508.259 184.115 506.974 183.79 506.974 183.79L506.444 185.685L509.947 186.525L509.69 189.272L511.426 189.684L511.682 186.967C512.159 187.089 512.619 187.202 513.07 187.308L512.814 190.013L514.553 190.425L514.812 187.683C517.75 188.217 519.862 188.001 520.361 185.454C520.764 183.402 519.813 182.218 518.189 181.445C519.242 181.195 519.954 180.485 519.941 179.017L519.942 179.016ZM516.956 184.312C516.762 186.365 513.089 185.256 511.91 184.977L512.253 181.338C513.431 181.618 517.156 182.172 516.957 184.312L516.956 184.312ZM516.632 178.987C516.456 180.855 513.393 179.906 512.411 179.673L512.72 176.372C513.702 176.605 516.814 177.04 516.63 178.987" fill="white"/>
<ellipse rx="13.9729" ry="13.9729" transform="matrix(-0.992021 -0.0914234 0.0827402 0.991462 469.3 94.9121)" fill="#FFE38E"/>
<ellipse rx="13.9729" ry="13.9729" transform="matrix(-0.992021 -0.0914234 0.0827402 0.991462 472.198 92.7168)" fill="#FFCD35"/>
<path d="M474.917 98.1329L475.253 100.045L473.69 101.024L471.832 100.045L471.497 98.1329L473.354 99.1125L474.917 98.1329ZM464.475 91.5208L466.332 92.5004L466.907 95.7788L470.102 97.4456L470.437 99.3574L465.394 96.7584L464.475 91.5208ZM479.57 91.5208L480.49 96.7663L476.309 99.3653L475.974 97.4535L478.584 95.7867L478.008 92.5083L479.57 91.5208ZM474.469 88.9218L476.375 89.9014L476.711 91.8131L474.101 93.48L474.684 96.8058L473.171 97.7853L471.322 96.8058L470.737 93.4721L467.435 91.8052L467.1 89.8935L468.663 88.9139L471.858 90.5808L474.469 88.9218ZM467.676 93.1798L469.534 94.1593L469.869 96.0711L468.012 95.0915L467.676 93.1798ZM476.951 93.1798L477.286 95.0915L475.772 96.0711L475.437 94.1593L476.951 93.1798ZM465.412 87.255L467.319 88.2345L465.756 89.2141L466.091 91.1258L464.234 90.1463L463.898 88.2345L465.412 87.255ZM477.136 87.255L479.043 88.2345L479.378 90.1463L477.815 91.1258L477.48 89.2141L475.623 88.2345L477.136 87.255ZM471.274 87.255L473.181 88.2345L471.618 89.2141L469.76 88.2345L471.274 87.255ZM470.699 83.9766L475.792 86.5756L474.278 87.5551L471.084 85.8883L468.416 87.5551L466.559 86.5756L470.699 83.9766Z" fill="white"/>
<ellipse rx="13.9729" ry="13.9729" transform="matrix(-0.992021 -0.0914234 0.0827402 0.991462 490.61 119.951)" fill="#7CD6FF"/>
<ellipse rx="13.9729" ry="13.9729" transform="matrix(-0.992021 -0.0914234 0.0827402 0.991462 493.509 117.756)" fill="#32ADE6"/>
<path d="M492.896 115.122L499.443 117.822L491.577 107.949L492.896 115.122Z" fill="white" fill-opacity="0.5"/>
<path d="M492.896 115.118L491.577 107.949L487.343 117.822L492.896 115.118Z" fill="white"/>
<path d="M495.143 127.334L499.654 118.949L494.247 122.465L495.143 127.334Z" fill="white" fill-opacity="0.5"/>
<path d="M487.551 118.949L495.143 127.334L494.247 122.465L487.551 118.949Z" fill="white"/>
<path d="M492.896 115.117L494.04 121.339L499.443 117.822L492.896 115.117Z" fill="white" fill-opacity="0.25"/>
<path d="M492.896 115.117L487.343 117.822L494.04 121.339L492.896 115.117Z" fill="white" fill-opacity="0.5"/>
<circle r="13.9729" transform="matrix(0.995805 -0.0915016 -0.123775 0.99231 575.365 99.7237)" fill="#A670FF"/>
<circle r="13.9729" transform="matrix(0.995805 -0.0915016 -0.123775 0.99231 572.558 97.5283)" fill="#8347E5"/>
<path d="M577.049 94.6028C576.767 94.4271 576.371 94.4271 576.013 94.6028L573.457 95.95L571.725 96.8285L569.169 98.1757C568.841 98.3514 568.445 98.3514 568.133 98.1757L566.384 97.1214C566.103 96.9457 565.932 96.6236 565.979 96.2721L566.256 94.1928C566.303 93.8414 566.528 93.5193 566.887 93.3436L568.882 92.3186C569.21 92.1429 569.606 92.1429 569.918 92.3186L571.64 93.3436C571.921 93.5193 572.092 93.8414 572.045 94.1928L571.866 95.54L573.602 94.6321L573.781 93.285C573.828 92.9336 573.688 92.6114 573.376 92.4357L570.19 90.5029C569.909 90.3272 569.513 90.3272 569.154 90.5029L565.393 92.4357C565.034 92.6114 564.808 92.9336 564.762 93.285L564.243 97.18C564.197 97.5314 564.337 97.8535 564.648 98.0293L567.895 99.9621C568.177 100.138 568.573 100.138 568.931 99.9621L571.483 98.6442L573.219 97.7364L575.771 96.4185C576.099 96.2428 576.495 96.2428 576.807 96.4185L578.529 97.4435C578.811 97.6193 578.981 97.9414 578.934 98.2928L578.658 100.372C578.611 100.724 578.385 101.046 578.027 101.221L576.028 102.276C575.7 102.451 575.303 102.451 574.992 102.276L573.269 101.251C572.988 101.075 572.818 100.753 572.864 100.401L573.044 99.0542L571.308 99.9621L571.129 101.309C571.082 101.661 571.222 101.983 571.534 102.159L574.78 104.091C575.062 104.267 575.458 104.267 575.816 104.091L579.578 102.159C579.906 101.983 580.162 101.661 580.209 101.309L580.727 97.4143C580.774 97.0628 580.634 96.7407 580.322 96.565L577.049 94.6028Z" fill="white"/>
<circle r="13.9729" transform="matrix(0.989415 -0.117369 -0.0581408 0.99338 557.859 138.983)" fill="#FF6BBA"/>
<circle r="13.9729" transform="matrix(0.989415 -0.117369 -0.0581408 0.99338 554.907 136.865)" fill="#E6007A"/>
<path d="M555.263 131.18C557.2 131.18 558.891 130.275 559.039 129.158C559.188 128.042 557.738 127.137 555.802 127.137C553.865 127.137 552.174 128.042 552.026 129.158C551.877 130.275 553.327 131.18 555.263 131.18Z" fill="white"/>
<path d="M553.236 146.414C555.173 146.414 556.863 145.509 557.012 144.393C557.16 143.276 555.711 142.371 553.774 142.371C551.838 142.371 550.147 143.276 549.999 144.393C549.85 145.509 551.299 146.414 553.236 146.414Z" fill="white"/>
<path d="M550.004 133.978C551.194 132.315 551.427 130.515 550.525 129.956C549.624 129.397 547.928 130.292 546.739 131.955C545.549 133.617 545.316 135.418 546.218 135.976C547.119 136.535 548.815 135.64 550.004 133.978Z" fill="white"/>
<path d="M562.297 141.593C563.487 139.931 563.72 138.131 562.819 137.572C561.918 137.014 560.223 137.909 559.034 139.572C557.844 141.234 557.61 143.035 558.512 143.593C559.413 144.151 561.107 143.256 562.297 141.593Z" fill="white"/>
<path d="M548.711 143.595C549.761 143.036 550.007 141.236 549.26 139.573C548.513 137.911 547.056 137.016 546.005 137.574C544.955 138.133 544.709 139.934 545.456 141.596C546.203 143.259 547.66 144.153 548.711 143.595Z" fill="white"/>
<path d="M563.032 135.978C564.082 135.42 564.327 133.62 563.58 131.957C562.833 130.295 561.376 129.4 560.326 129.958C559.277 130.516 559.031 132.316 559.778 133.979C560.526 135.641 561.982 136.537 563.032 135.978Z" fill="white"/>
</g>
<defs>
<linearGradient id="paint0_linear_964_1645" x1="1151" y1="-113.535" x2="-199" y2="550.465" gradientUnits="userSpaceOnUse">
<stop stop-color="white"/>
<stop offset="1" stop-color="white" stop-opacity="0"/>
</linearGradient>
<radialGradient id="paint1_radial_964_1645" cx="0" cy="0" r="1" gradientUnits="userSpaceOnUse" gradientTransform="translate(521.452 337.408) scale(167.823 144.423)">
<stop stop-color="#425991"/>
<stop offset="1" stop-color="#3364ED" stop-opacity="0.01"/>
</radialGradient>
<linearGradient id="paint2_linear_964_1645" x1="667.299" y1="726.091" x2="846.21" y2="456.563" gradientUnits="userSpaceOnUse">
<stop stop-color="#3364ED"/>
<stop offset="1" stop-color="#C3E4FF"/>
</linearGradient>
<linearGradient id="paint3_linear_964_1645" x1="61.6971" y1="543.634" x2="240.587" y2="813.202" gradientUnits="userSpaceOnUse">
<stop stop-color="#3364ED"/>
<stop offset="1" stop-color="#C3E4FF"/>
</linearGradient>
<linearGradient id="paint4_linear_964_1645" x1="747.402" y1="305.558" x2="788.941" y2="316.305" gradientUnits="userSpaceOnUse">
<stop stop-color="#5DCAFF"/>
<stop offset="1" stop-color="#C5EBFF"/>
</linearGradient>
<linearGradient id="paint5_linear_964_1645" x1="293.238" y1="385.957" x2="251.699" y2="396.703" gradientUnits="userSpaceOnUse">
<stop stop-color="#5DCAFF"/>
<stop offset="1" stop-color="#C5EBFF"/>
</linearGradient>
<linearGradient id="paint6_linear_964_1645" x1="385.35" y1="425.703" x2="385.35" y2="344.747" gradientUnits="userSpaceOnUse">
<stop stop-color="white"/>
<stop offset="1" stop-color="#5AC8FF"/>
</linearGradient>
<linearGradient id="paint7_linear_964_1645" x1="412.884" y1="440.693" x2="412.884" y2="344.136" gradientUnits="userSpaceOnUse">
<stop stop-color="white"/>
<stop offset="1" stop-color="#5AC8FF"/>
</linearGradient>
<linearGradient id="paint8_linear_964_1645" x1="479.527" y1="372.514" x2="479.527" y2="281.93" gradientUnits="userSpaceOnUse">
<stop stop-color="white"/>
<stop offset="1" stop-color="#5AC8FF"/>
</linearGradient>
<linearGradient id="paint9_linear_964_1645" x1="618.363" y1="329.275" x2="618.363" y2="418.13" gradientUnits="userSpaceOnUse">
<stop stop-color="#5DCAFF"/>
<stop offset="1" stop-color="#57C6FF" stop-opacity="0.36815"/>
</linearGradient>
<linearGradient id="paint10_linear_964_1645" x1="662.253" y1="390.399" x2="662.253" y2="287.757" gradientUnits="userSpaceOnUse">
<stop stop-color="white"/>
<stop offset="1" stop-color="#5AC8FF"/>
</linearGradient>
<linearGradient id="paint11_linear_964_1645" x1="608.702" y1="295.52" x2="608.702" y2="306.843" gradientUnits="userSpaceOnUse">
<stop stop-color="white"/>
<stop offset="1" stop-color="white" stop-opacity="0.01"/>
</linearGradient>
<linearGradient id="paint12_linear_964_1645" x1="622.299" y1="324.957" x2="622.299" y2="336.28" gradientUnits="userSpaceOnUse">
<stop stop-color="white"/>
<stop offset="1" stop-color="white" stop-opacity="0.01"/>
</linearGradient>
<linearGradient id="paint13_linear_964_1645" x1="641.562" y1="348.734" x2="641.562" y2="360.057" gradientUnits="userSpaceOnUse">
<stop stop-color="white"/>
<stop offset="1" stop-color="white" stop-opacity="0.01"/>
</linearGradient>
<linearGradient id="paint14_linear_964_1645" x1="650.627" y1="378.18" x2="650.627" y2="389.503" gradientUnits="userSpaceOnUse">
<stop stop-color="white"/>
<stop offset="1" stop-color="white" stop-opacity="0.01"/>
</linearGradient>
<linearGradient id="paint15_linear_964_1645" x1="609.836" y1="352.133" x2="609.836" y2="363.456" gradientUnits="userSpaceOnUse">
<stop stop-color="white"/>
<stop offset="1" stop-color="white" stop-opacity="0.01"/>
</linearGradient>
<linearGradient id="paint16_linear_964_1645" x1="635.896" y1="300.047" x2="635.896" y2="311.37" gradientUnits="userSpaceOnUse">
<stop stop-color="white"/>
<stop offset="1" stop-color="white" stop-opacity="0.01"/>
</linearGradient>
<linearGradient id="paint17_linear_964_1645" x1="658.557" y1="324.957" x2="658.557" y2="336.28" gradientUnits="userSpaceOnUse">
<stop stop-color="white"/>
<stop offset="1" stop-color="white" stop-opacity="0.01"/>
</linearGradient>
<linearGradient id="paint18_linear_964_1645" x1="571.118" y1="317.321" x2="720.765" y2="398.163" gradientUnits="userSpaceOnUse">
<stop stop-color="#5AC8FF"/>
<stop offset="1" stop-color="#57C6FF" stop-opacity="0.36815"/>
</linearGradient>
<linearGradient id="paint19_linear_964_1645" x1="708.82" y1="345.212" x2="708.82" y2="421.456" gradientUnits="userSpaceOnUse">
<stop stop-color="#5DCAFF"/>
<stop offset="1" stop-color="#57C6FF" stop-opacity="0.36815"/>
</linearGradient>
<linearGradient id="paint20_linear_964_1645" x1="683.536" y1="415.985" x2="683.536" y2="300.207" gradientUnits="userSpaceOnUse">
<stop stop-color="white"/>
<stop offset="1" stop-color="#5AC8FF"/>
</linearGradient>
<linearGradient id="paint21_linear_964_1645" x1="508.12" y1="350.566" x2="508.12" y2="476.301" gradientUnits="userSpaceOnUse">
<stop stop-color="#6EB5FF"/>
<stop offset="1" stop-color="#5582FF"/>
</linearGradient>
<linearGradient id="paint22_linear_964_1645" x1="562.397" y1="494.496" x2="491.837" y2="371.446" gradientUnits="userSpaceOnUse">
<stop stop-color="#3364ED"/>
<stop offset="1" stop-color="#5582FF"/>
</linearGradient>
<linearGradient id="paint23_linear_964_1645" x1="556.581" y1="274.141" x2="556.581" y2="355.674" gradientUnits="userSpaceOnUse">
<stop stop-color="white" stop-opacity="0.01"/>
<stop offset="1" stop-color="#5ACBFF"/>
</linearGradient>
<linearGradient id="paint24_linear_964_1645" x1="522.545" y1="98.3925" x2="522.545" y2="216.104" gradientUnits="userSpaceOnUse">
<stop stop-color="#5ACBFF" stop-opacity="0"/>
<stop offset="1" stop-color="#5ACBFF"/>
</linearGradient>
<linearGradient id="paint25_linear_964_1645" x1="736.455" y1="553.499" x2="684.19" y2="583.675" gradientUnits="userSpaceOnUse">
<stop stop-color="white"/>
<stop offset="1" stop-color="white" stop-opacity="0.01"/>
</linearGradient>
<linearGradient id="paint26_linear_964_1645" x1="395.2" y1="595.951" x2="337.45" y2="562.609" gradientUnits="userSpaceOnUse">
<stop stop-color="white"/>
<stop offset="1" stop-color="white" stop-opacity="0.01"/>
</linearGradient>
<clipPath id="clip0_964_1645">
<rect width="1062" height="748" fill="white"/>
</clipPath>
</defs>
</svg>
